<svg width="64" height="69" viewBox="0 0 64 69" fill="currentColor" xmlns="http://www.w3.org/2000/svg">
  <path
    d="M62.3353 62.397C62.212 62.7053 61.842 62.8903 61.842 63.2602C61.842 63.6302 62.0886 63.8768 62.1503 64.2467C62.1503 64.4934 61.9037 65.4799 61.657 65.6649C61.4721 65.8498 61.1021 65.7882 60.8555 65.7882C60.054 65.8498 59.1908 65.8498 58.3892 65.8498C55.4297 65.8498 52.5318 65.9115 49.5723 65.9115H16.5857C12.8863 65.9115 9.12524 65.8498 5.42581 65.8498C4.50096 65.8498 3.5761 65.8498 2.65125 65.8498C2.34296 65.8498 2.03468 65.6649 1.91136 65.3566C1.84971 64.9866 2.03468 64.555 2.03468 64.1851C1.97302 64.0001 1.78805 63.8768 1.78805 63.6918C1.84971 63.5685 1.97302 63.4452 1.97302 63.2602C1.97302 62.9519 1.54142 62.8903 1.72639 62.5203C2.15799 61.5955 3.39113 61.2872 4.31599 61.2872C6.78227 61.2872 9.31021 61.1639 11.7765 61.3489C16.2775 61.6571 20.9634 61.5338 25.4644 61.3489C26.5742 61.2872 27.6224 61.2872 28.7322 61.2872C29.0405 61.2872 29.7803 61.3489 29.9653 61.1639C30.1503 61.0406 30.0886 60.7323 30.0886 60.5473C30.0886 59.9307 30.0886 59.3142 30.027 58.6976C29.842 57.0945 29.9037 55.4298 29.9653 53.8267C30.027 53.0251 30.2119 51.977 30.027 51.1754C29.842 50.4972 28.2389 50.7438 27.684 50.7438H20.3468H11.8381C10.4817 50.7438 8.87861 50.9288 7.70713 50.1889C7.39884 49.9423 7.4605 49.5723 7.4605 49.2641C7.33718 48.4009 7.39884 47.476 7.39884 46.6128C7.39884 43.8999 7.4605 41.187 7.4605 38.4741V36.1311C7.4605 35.7611 7.39884 35.2679 7.58381 34.8979C7.70713 34.5897 8.13872 34.6513 8.38535 34.6513C8.87861 34.5897 10.42 34.0964 10.6667 34.713C10.9749 35.3912 10.79 36.6243 10.79 37.3642V43.345V45.4413C10.79 45.6263 10.7283 46.0579 10.8516 46.1812C11.0366 46.4278 11.5299 46.3045 11.7765 46.3045C12.7013 46.3045 13.5645 46.2429 14.4894 46.2429C18.2505 46.2429 21.9499 46.1812 25.711 46.1812H28.7938C29.0405 46.1812 29.657 46.3045 29.842 46.0579C30.0886 45.6879 29.842 44.8864 29.9037 44.4548C30.0886 42.6667 29.9653 40.817 29.9653 39.029C29.9653 35.5762 29.9037 32.0617 29.9653 28.6089C29.9653 28.054 30.1503 27.4991 30.1503 26.9442C30.1503 24.8478 30.027 22.7515 30.027 20.6551C30.027 18.8054 30.1503 16.8324 30.027 14.9827C30.027 14.6744 30.1503 13.3796 29.842 13.1946C29.657 13.0097 28.9788 13.133 28.6705 13.133H25.341C21.0867 13.133 16.894 13.0097 12.6397 13.0097C11.7148 13.0097 10.8516 13.0713 9.92678 13.0713C9.49518 13.0713 9.00192 13.133 8.57032 12.948C8.3237 12.8247 7.52215 12.3314 7.52215 11.9615C7.58381 11.5915 8.26204 11.4066 8.26204 10.9133C8.26204 10.6667 7.8921 10.5434 7.83044 10.2967C7.70713 10.0501 8.01541 8.94028 8.20038 8.75531C8.57032 8.44702 9.37187 8.632 9.80346 8.632C11.1599 8.632 12.5164 8.57034 13.8728 8.57034H24.4778C26.1426 8.57034 27.9923 8.81697 29.5954 8.57034C29.9653 8.50868 29.9037 8.07708 29.9037 7.7688C29.9653 6.96725 29.9653 6.16571 29.9653 5.36417C29.9653 4.56262 30.2119 3.69942 30.1503 2.89788C30.1503 2.52794 29.9653 1.91137 30.2119 1.66474C30.3353 1.47977 30.8285 1.54142 31.0135 1.54142C31.7534 1.54142 32.4933 1.2948 33.1715 1.35645C33.6031 1.35645 33.7264 1.84971 33.973 2.09634C35.0212 3.20617 34.5896 5.42582 34.5896 6.9056C34.5896 7.27554 34.4046 8.44702 34.7746 8.57034C35.1445 8.75531 35.6994 8.57034 36.131 8.57034C37.1792 8.57034 38.1657 8.57034 39.2139 8.57034H50.3121C51.5453 8.57034 52.8401 8.632 54.0732 8.632C54.4432 8.632 55.1831 8.50868 55.4297 8.81697C55.6147 9.00194 55.4913 9.24857 55.6147 9.4952C55.7996 10.1118 56.0463 10.9133 55.7996 11.5915C55.6147 12.2081 54.5048 12.763 53.8883 12.8863C52.4701 13.0713 50.9904 12.8863 49.5723 12.8863C46.1195 12.8863 42.7283 12.763 39.2755 12.763C38.1041 12.763 36.8709 12.8247 35.6994 12.8247C35.2062 12.8247 34.5896 12.6397 34.4663 13.2563C34.343 14.1195 34.4663 14.9827 34.4663 15.8459C34.4046 17.6339 34.4046 19.4837 34.4046 21.2717V23.1831C34.4046 23.3681 34.343 23.738 34.5279 23.8613C34.7746 24.0463 35.4528 23.9846 35.7611 23.9846H39.0289C43.2832 23.9846 47.5376 24.0463 51.7919 24.0463C52.5318 24.0463 53.395 24.1696 54.1349 24.1079C55.368 23.9846 56.4779 23.3064 57.2794 24.7245C57.5877 25.3411 57.3411 26.5126 57.3411 27.1908C57.3411 29.2255 57.4027 31.2602 57.2794 33.2949C57.2177 34.5897 57.2177 35.8845 57.2177 37.1793C57.2177 37.7958 57.3411 38.5357 57.1561 39.0906C57.0944 39.3989 56.7861 39.8305 56.4162 39.7689C56.2312 39.7072 56.1696 39.4606 55.9229 39.5222C55.553 39.5839 54.7515 39.8922 54.5048 39.3373C54.1965 38.659 54.3815 37.4875 54.3815 36.7477C54.3815 34.8979 54.3199 33.0482 54.3199 31.1985C54.3199 30.5819 54.2582 29.9654 54.2582 29.3488C54.2582 29.1022 54.3199 28.7322 54.1965 28.4856C54.0116 28.239 53.3333 28.3623 53.0867 28.3623C51.9769 28.3623 50.9287 28.3006 49.8189 28.3006C46.1195 28.3006 42.3584 28.1773 38.659 28.1773H35.8227C35.5761 28.1773 34.9595 28.054 34.7746 28.239C34.4663 28.4239 34.5896 29.1638 34.5896 29.4721C34.5896 30.7053 34.5896 31.8767 34.5896 33.1099C34.5279 35.7611 34.4046 38.4741 34.4663 41.1253C34.5279 43.2833 34.7746 45.503 34.5896 47.661C34.4663 48.7091 34.5896 49.6957 34.5279 50.7438C34.4046 53.1485 34.4046 55.4914 34.4046 57.8961C34.4046 58.6976 34.4663 59.5608 34.4663 60.3623C34.4663 60.609 34.4046 61.1022 34.6513 61.2872C35.0212 61.5955 35.9461 61.4105 36.3777 61.4105C37.9807 61.4105 39.5222 61.3489 41.1252 61.3489C45.9962 61.3489 50.8671 61.4722 55.738 61.4722H59.499C59.9923 61.4722 60.6705 61.3489 61.1021 61.4722C61.4721 61.5338 61.7187 61.9038 62.027 62.0887M1.66473 64.8633L1.91136 64.74"
    stroke="#000" />
  <style>
    path { fill: #000; }
    @media (prefers-color-scheme: dark) {
    path { fill: #FFF; }
    }
  </style>
</svg>